<?xml version="1.0" encoding="utf-8"?>
<!-- Generator: Adobe Illustrator 27.5.0, SVG Export Plug-In . SVG Version: 6.00 Build 0)  -->
<svg version="1.1" id="Layer_1" xmlns="http://www.w3.org/2000/svg" xmlns:xlink="http://www.w3.org/1999/xlink" x="0px" y="0px"
	 viewBox="0 0 800 800" style="enable-background:new 0 0 800 800;" xml:space="preserve">
<g>
	<path style="fill:#16467B;" d="M335.032,305.85c0.063,4.173-1.02,7.741-3.25,10.704c-1.465,2.006-3.535,3.424-6.211,4.252
		c-1.433,0.446-3.106,0.669-5.017,0.669c-3.536,0-6.467-0.876-8.792-2.628c-1.943-1.433-3.481-3.384-4.611-5.854
		c-1.131-2.468-1.792-5.295-1.982-8.481l8.6-0.621c0.382,3.491,1.306,6.02,2.771,7.589c1.083,1.185,2.325,1.746,3.728,1.682
		c1.975-0.064,3.551-1.036,4.73-2.919c0.605-0.924,0.908-2.247,0.908-3.969c0-2.487-1.131-4.958-3.393-7.413
		c-1.784-1.69-4.46-4.224-8.027-7.603c-2.995-2.901-5.113-5.501-6.355-7.797c-1.339-2.582-2.007-5.388-2.007-8.416
		c0-5.452,1.831-9.581,5.494-12.387c2.262-1.69,5.065-2.534,8.41-2.534c3.217,0,5.973,0.716,8.266,2.15
		c1.785,1.116,3.225,2.676,4.325,4.683c1.099,2.007,1.76,4.317,1.984,6.929l-8.649,1.576c-0.255-2.452-0.956-4.363-2.102-5.734
		c-0.829-0.987-2.024-1.481-3.584-1.481c-1.657,0-2.915,0.733-3.775,2.198c-0.701,1.179-1.051,2.644-1.051,4.396
		c0,2.74,1.178,5.527,3.535,8.362c0.892,1.083,2.229,2.357,4.014,3.822c2.103,1.752,3.488,2.978,4.157,3.679
		c2.229,2.23,3.949,4.429,5.16,6.595c0.573,1.019,1.035,1.959,1.386,2.819C334.555,302.251,335,304.162,335.032,305.85z"/>
	<path style="fill:#16467B;" d="M355.529,260.123c3.982,0,7.366,1.401,10.154,4.204c2.787,2.804,4.181,6.18,4.181,10.13v32.683
		c0,3.982-1.401,7.367-4.204,10.154c-2.804,2.787-6.18,4.181-10.131,4.181c-3.982,0-7.358-1.401-10.13-4.205
		c-2.771-2.803-4.157-6.18-4.157-10.13v-32.683c0-3.982,1.402-7.366,4.204-10.154C348.25,261.517,351.611,260.123,355.529,260.123z
		 M360.451,274.267c0-1.434-0.501-2.652-1.505-3.655c-1.004-1.004-2.222-1.506-3.655-1.506c-1.433,0-2.66,0.502-3.68,1.506
		c-1.02,1.003-1.528,2.222-1.528,3.655v32.779c0,1.433,0.509,2.652,1.528,3.655c1.019,1.003,2.246,1.505,3.68,1.505
		c1.433,0,2.652-0.501,3.655-1.505c1.003-1.003,1.505-2.222,1.505-3.655V274.267z"/>
	<path style="fill:#16467B;" d="M390.411,321.523c-3.982,0-7.366-1.393-10.153-4.181c-2.788-2.787-4.181-6.155-4.181-10.105v-32.684
		c0-3.981,1.402-7.366,4.205-10.153c2.803-2.787,6.179-4.181,10.13-4.181c3.982,0,7.358,1.402,10.13,4.204
		c2.771,2.804,4.156,6.181,4.156,10.13v6.833h-9.365v-7.023c0-1.434-0.51-2.659-1.529-3.68c-1.019-1.018-2.245-1.529-3.679-1.529
		c-1.434,0-2.652,0.511-3.655,1.529c-1.003,1.02-1.505,2.246-1.505,3.68v32.779c0,1.433,0.501,2.652,1.505,3.655
		c1.004,1.003,2.222,1.505,3.655,1.505c1.433,0,2.659-0.501,3.679-1.505c1.019-1.004,1.529-2.222,1.529-3.655v-8.266h9.365v8.362
		c0,3.982-1.401,7.359-4.204,10.13C397.689,320.137,394.329,321.523,390.411,321.523z"/>
	<path style="fill:#16467B;" d="M425.243,321.523c-3.982,0-7.366-1.393-10.153-4.181c-2.788-2.787-4.181-6.155-4.181-10.105v-32.684
		c0-3.981,1.401-7.366,4.204-10.153c2.803-2.787,6.18-4.181,10.13-4.181c3.982,0,7.359,1.402,10.13,4.204
		c2.771,2.804,4.157,6.181,4.157,10.13v6.833h-9.365v-7.023c0-1.434-0.51-2.659-1.529-3.68c-1.02-1.018-2.245-1.529-3.679-1.529
		c-1.433,0-2.652,0.511-3.655,1.529c-1.003,1.02-1.505,2.246-1.505,3.68v32.779c0,1.433,0.501,2.652,1.505,3.655
		c1.004,1.003,2.222,1.505,3.655,1.505c1.433,0,2.659-0.501,3.679-1.505c1.02-1.004,1.529-2.222,1.529-3.655v-8.266h9.365v8.362
		c0,3.982-1.401,7.359-4.204,10.13C432.522,320.137,429.161,321.523,425.243,321.523z"/>
	<path style="fill:#16467B;" d="M445.742,320.759v-59.919h25.706v9.079h-16.676v16.341h12.184v9.079h-12.184v16.342h16.676v9.078
		H445.742z"/>
	<path style="fill:#16467B;" d="M491.899,260.887c5.032,0,8.727,1.386,11.085,4.157c2.07,2.421,3.106,5.798,3.106,10.13v8.696
		c0,4.237-1.609,7.821-4.827,10.751l6.689,26.137h-9.766l-5.475-22.553c-0.255,0-0.526,0-0.812,0h-5.209v22.553h-9.03v-59.872
		H491.899z M497.298,275.318c0-3.472-1.721-5.209-5.161-5.209h-5.447v19.161h5.447c1.433,0,2.652-0.509,3.655-1.529
		c1.004-1.018,1.506-2.245,1.506-3.679V275.318z"/>
	<path style="fill:#16467B;" d="M372.641,379.779c-2.884,0-5.335-1.009-7.353-3.028c-2.019-2.018-3.028-4.458-3.028-7.318v-23.669
		c0-2.884,1.015-5.335,3.045-7.353c2.03-2.019,4.476-3.028,7.336-3.028c2.884,0,5.329,1.016,7.336,3.045
		c2.007,2.03,3.01,4.476,3.01,7.336v4.949h-6.782v-5.087c0-1.038-0.369-1.926-1.108-2.665c-0.738-0.738-1.626-1.108-2.664-1.108
		c-1.038,0-1.921,0.37-2.647,1.108c-0.726,0.739-1.09,1.627-1.09,2.665v23.738c0,1.038,0.363,1.921,1.09,2.647
		c0.727,0.727,1.609,1.09,2.647,1.09c1.038,0,1.926-0.363,2.664-1.09c0.739-0.727,1.108-1.609,1.108-2.647v-5.986h6.782v6.056
		c0,2.884-1.015,5.329-3.045,7.336C377.912,378.776,375.478,379.779,372.641,379.779z"/>
	<path style="fill:#16467B;" d="M405.307,379.225h-17.821v-43.359h6.54v36.854h11.281V379.225z"/>
	<path style="fill:#16467B;" d="M420.151,379.71c-2.884,0-5.329-1.003-7.336-3.01c-2.007-2.007-3.01-4.441-3.01-7.301v-33.531h6.402
		v33.462c0,1.038,0.369,1.921,1.107,2.647c0.739,0.727,1.627,1.09,2.665,1.09c1.038,0,1.921-0.363,2.647-1.09
		c0.727-0.727,1.09-1.609,1.09-2.647v-33.462h6.817v33.531c0,2.906-1.015,5.353-3.045,7.336
		C425.456,378.718,423.011,379.71,420.151,379.71z"/>
	<path style="fill:#16467B;" d="M435.03,379.225v-43.393h9.793c2.584,0,4.914,0.681,6.99,2.042c1.776,1.154,3.045,2.942,3.807,5.364
		c0.415,1.293,0.622,2.826,0.622,4.602c0,2.906-0.773,5.237-2.318,6.99c-0.647,0.739-1.408,1.304-2.284,1.696
		c1.453,0.553,2.687,1.649,3.702,3.287c0.668,1.107,1.165,2.537,1.488,4.291c0.161,0.899,0.242,1.903,0.242,3.01
		c0,2.746-0.519,5.076-1.557,6.99c-0.807,1.5-1.95,2.7-3.425,3.599c-1.661,1.016-3.311,1.522-4.949,1.522H435.03z M442.089,353.549
		h2.733c2.03,0,3.392-0.991,4.083-2.976c0.254-0.738,0.381-1.649,0.381-2.733c0-1.8-0.438-3.161-1.315-4.083
		c-0.807-0.853-1.857-1.28-3.149-1.28h-2.733V353.549z M442.089,372.755h2.733c2.215,0,3.749-1.142,4.602-3.426
		c0.299-0.784,0.451-1.684,0.451-2.699c0-2.423-0.462-4.188-1.385-5.294c-0.831-1.016-2.054-1.523-3.668-1.523h-2.733V372.755z"/>
</g>
<g>
	<path style="fill:#16467B;" d="M354.141,233.877h-3.313c-0.024-0.117-0.041-0.248-0.053-0.39c-0.011-0.142-0.018-0.277-0.018-0.407
		c0-0.13,0.007-0.263,0.018-0.399c0.012-0.135,0.029-0.263,0.053-0.38h8.433c0.023,0.117,0.041,0.242,0.054,0.372
		c0.011,0.13,0.017,0.26,0.017,0.39c0,0.13-0.006,0.268-0.017,0.417c-0.012,0.147-0.03,0.281-0.054,0.398h-3.314v11.162
		c-0.271,0.036-0.567,0.053-0.885,0.053c-0.331,0-0.638-0.018-0.922-0.053V233.877z"/>
	<path style="fill:#16467B;" d="M365.497,245.251c-0.921,0-1.719-0.162-2.392-0.487c-0.673-0.324-1.232-0.779-1.675-1.364
		c-0.442-0.585-0.774-1.278-0.992-2.082c-0.218-0.803-0.328-1.683-0.328-2.64c0-0.957,0.11-1.836,0.328-2.64
		c0.219-0.804,0.55-1.497,0.992-2.082c0.443-0.585,1.001-1.042,1.675-1.372c0.673-0.331,1.471-0.497,2.392-0.497
		c0.921,0,1.719,0.165,2.392,0.497c0.673,0.331,1.232,0.788,1.675,1.372c0.442,0.585,0.771,1.278,0.983,2.082
		c0.213,0.803,0.319,1.683,0.319,2.64c0,0.956-0.106,1.837-0.319,2.64c-0.212,0.804-0.541,1.497-0.983,2.082
		c-0.443,0.585-1.002,1.04-1.675,1.364C367.216,245.089,366.418,245.251,365.497,245.251z M365.497,243.693
		c0.59,0,1.101-0.116,1.533-0.345c0.431-0.231,0.788-0.564,1.072-1.002c0.283-0.437,0.496-0.962,0.637-1.577
		c0.142-0.614,0.212-1.31,0.212-2.09c0-0.768-0.07-1.462-0.212-2.081c-0.142-0.62-0.354-1.146-0.637-1.577
		c-0.283-0.431-0.641-0.762-1.072-0.992c-0.432-0.231-0.943-0.345-1.533-0.345c-0.59,0-1.101,0.115-1.533,0.345
		c-0.431,0.23-0.788,0.561-1.071,0.992c-0.284,0.431-0.497,0.956-0.638,1.577c-0.142,0.62-0.212,1.313-0.212,2.081
		c0,0.78,0.07,1.476,0.212,2.09c0.142,0.615,0.355,1.141,0.638,1.577c0.284,0.437,0.64,0.771,1.071,1.002
		C364.396,243.577,364.907,243.693,365.497,243.693z"/>
	<path style="fill:#16467B;" d="M373.382,232.301c0.283-0.036,0.59-0.054,0.921-0.054c0.319,0,0.614,0.018,0.886,0.054v7.228
		c0,0.732,0.047,1.358,0.142,1.878c0.095,0.52,0.248,0.941,0.461,1.266c0.212,0.326,0.493,0.564,0.841,0.718
		c0.348,0.153,0.776,0.23,1.285,0.23c0.507,0,0.932-0.077,1.275-0.23c0.343-0.154,0.621-0.392,0.833-0.718
		c0.212-0.325,0.365-0.746,0.46-1.266c0.095-0.52,0.142-1.146,0.142-1.878v-7.228c0.296-0.036,0.597-0.054,0.904-0.054
		c0.331,0,0.638,0.018,0.921,0.054v7.547c0,0.85-0.08,1.612-0.238,2.286c-0.159,0.673-0.42,1.24-0.78,1.701
		c-0.361,0.46-0.83,0.812-1.408,1.054c-0.579,0.241-1.282,0.362-2.108,0.362c-0.827,0-1.53-0.121-2.108-0.362
		c-0.579-0.242-1.048-0.594-1.409-1.054c-0.361-0.461-0.621-1.028-0.779-1.701c-0.16-0.674-0.239-1.435-0.239-2.286V232.301z"/>
	<path style="fill:#16467B;" d="M385.482,232.283c0.259-0.024,0.496-0.047,0.709-0.071c0.212-0.023,0.422-0.044,0.629-0.062
		c0.207-0.018,0.422-0.032,0.647-0.044c0.223-0.011,0.472-0.018,0.743-0.018c0.603,0,1.199,0.059,1.79,0.177
		c0.591,0.118,1.116,0.325,1.576,0.62c0.461,0.296,0.835,0.695,1.125,1.196c0.289,0.502,0.434,1.138,0.434,1.905
		c0,0.461-0.077,0.88-0.23,1.258c-0.154,0.378-0.348,0.715-0.585,1.01c-0.236,0.296-0.505,0.553-0.806,0.771
		c-0.301,0.219-0.593,0.399-0.877,0.541l-0.212,0.106l3.702,5.369c-0.319,0.036-0.679,0.053-1.08,0.053
		c-0.319,0-0.638-0.018-0.957-0.053l-4.075-5.9v-0.071l0.142-0.035c0.318-0.083,0.655-0.195,1.009-0.337
		c0.355-0.142,0.682-0.328,0.984-0.558c0.301-0.231,0.552-0.508,0.753-0.834c0.201-0.324,0.301-0.717,0.301-1.178
		c0-0.851-0.251-1.482-0.753-1.895c-0.502-0.413-1.178-0.62-2.029-0.62c-0.201,0-0.388,0.007-0.559,0.018
		c-0.171,0.012-0.363,0.03-0.575,0.054v11.356c-0.13,0.011-0.275,0.023-0.435,0.036c-0.159,0.011-0.31,0.018-0.451,0.018
		c-0.142,0-0.296-0.004-0.461-0.009c-0.165-0.006-0.318-0.021-0.46-0.044V232.283z"/>
	<path style="fill:#16467B;" d="M396.024,232.301c0.129-0.024,0.268-0.041,0.416-0.054c0.148-0.011,0.286-0.018,0.417-0.018
		c0.13,0,0.268,0.007,0.417,0.018c0.147,0.012,0.285,0.029,0.416,0.054l5.546,9.567v-9.567c0.142-0.024,0.289-0.041,0.443-0.054
		c0.153-0.011,0.307-0.018,0.46-0.018c0.13,0,0.266,0.007,0.407,0.018c0.142,0.012,0.278,0.029,0.407,0.054v12.738
		c-0.13,0.023-0.269,0.041-0.416,0.053c-0.148,0.012-0.286,0.017-0.417,0.017c-0.13,0-0.268-0.006-0.416-0.017
		c-0.148-0.012-0.286-0.03-0.417-0.053l-5.563-9.514v9.514c-0.131,0.023-0.269,0.041-0.417,0.053
		c-0.147,0.012-0.292,0.017-0.434,0.017c-0.154,0-0.304-0.006-0.452-0.017c-0.148-0.012-0.281-0.03-0.399-0.053V232.301z"/>
	<path style="fill:#16467B;" d="M414.343,242.098h-4.836l-0.868,2.941c-0.154,0.023-0.307,0.041-0.461,0.053
		c-0.154,0.012-0.307,0.017-0.461,0.017c-0.165,0-0.328-0.006-0.487-0.017c-0.159-0.012-0.304-0.03-0.434-0.053l4.146-12.738
		c0.153-0.024,0.318-0.041,0.496-0.054c0.177-0.011,0.36-0.018,0.549-0.018c0.165,0,0.337,0.007,0.514,0.018
		c0.177,0.012,0.348,0.029,0.514,0.054l4.127,12.738c-0.142,0.023-0.3,0.041-0.478,0.053c-0.177,0.012-0.348,0.017-0.513,0.017
		c-0.154,0-0.311-0.006-0.47-0.017c-0.16-0.012-0.31-0.03-0.451-0.053L414.343,242.098z M409.984,240.521h3.881l-1.949-6.502
		L409.984,240.521z"/>
	<path style="fill:#16467B;" d="M419.357,232.301c0.142-0.024,0.304-0.041,0.487-0.054c0.183-0.011,0.358-0.018,0.523-0.018
		c0.165,0,0.345,0.007,0.541,0.018c0.194,0.012,0.357,0.029,0.487,0.054l3.295,7.972l3.314-7.972
		c0.118-0.024,0.266-0.041,0.443-0.054c0.177-0.011,0.348-0.018,0.513-0.018c0.154,0,0.325,0.007,0.514,0.018
		c0.189,0.012,0.347,0.029,0.478,0.054l0.603,12.738c-0.142,0.023-0.286,0.041-0.435,0.053c-0.147,0.012-0.298,0.017-0.452,0.017
		c-0.154,0-0.304-0.006-0.452-0.017c-0.148-0.012-0.286-0.03-0.417-0.053l-0.408-9.904l-3.118,7.265
		c-0.237,0.036-0.478,0.053-0.726,0.053c-0.225,0-0.45-0.017-0.674-0.053l-3.011-7.317l-0.407,9.957
		c-0.13,0.023-0.267,0.041-0.408,0.053c-0.142,0.012-0.277,0.017-0.407,0.017c-0.153,0-0.3-0.006-0.442-0.017
		c-0.142-0.012-0.278-0.03-0.408-0.053L419.357,232.301z"/>
	<path style="fill:#16467B;" d="M433.46,232.301h6.998c0.036,0.236,0.053,0.496,0.053,0.779c0,0.13-0.003,0.266-0.009,0.407
		c-0.005,0.142-0.02,0.272-0.044,0.39h-5.191v3.65h4.146c0.023,0.118,0.041,0.246,0.052,0.381c0.012,0.136,0.018,0.269,0.018,0.399
		c0,0.13-0.006,0.266-0.018,0.407c-0.011,0.142-0.029,0.272-0.052,0.389h-4.146v4.359h5.333c0.036,0.236,0.054,0.496,0.054,0.78
		c0,0.13-0.003,0.266-0.009,0.408c-0.006,0.142-0.021,0.271-0.044,0.39h-7.14V232.301z"/>
	<path style="fill:#16467B;" d="M442.957,232.301c0.13-0.024,0.269-0.041,0.416-0.054c0.148-0.011,0.286-0.018,0.417-0.018
		c0.129,0,0.268,0.007,0.417,0.018c0.147,0.012,0.285,0.029,0.416,0.054l5.546,9.567v-9.567c0.142-0.024,0.289-0.041,0.443-0.054
		c0.153-0.011,0.307-0.018,0.46-0.018c0.13,0,0.266,0.007,0.407,0.018c0.142,0.012,0.278,0.029,0.407,0.054v12.738
		c-0.13,0.023-0.268,0.041-0.416,0.053c-0.148,0.012-0.286,0.017-0.417,0.017c-0.13,0-0.268-0.006-0.416-0.017
		c-0.148-0.012-0.286-0.03-0.417-0.053l-5.563-9.514v9.514c-0.131,0.023-0.27,0.041-0.417,0.053
		c-0.147,0.012-0.292,0.017-0.434,0.017c-0.154,0-0.304-0.006-0.452-0.017c-0.148-0.012-0.281-0.03-0.399-0.053V232.301z"/>
	<path style="fill:#16467B;" d="M457.2,233.877h-3.313c-0.024-0.117-0.041-0.248-0.053-0.39c-0.011-0.142-0.018-0.277-0.018-0.407
		c0-0.13,0.007-0.263,0.018-0.399c0.012-0.135,0.029-0.263,0.053-0.38h8.433c0.023,0.117,0.041,0.242,0.053,0.372
		c0.011,0.13,0.017,0.26,0.017,0.39c0,0.13-0.006,0.268-0.017,0.417c-0.012,0.147-0.03,0.281-0.053,0.398h-3.314v11.162
		c-0.271,0.036-0.567,0.053-0.885,0.053c-0.331,0-0.638-0.018-0.922-0.053V233.877z"/>
</g>
<g>
	<path style="fill:#16467B;" d="M408.768,184.861c33.164,26.831,72.88,45.009,102.286,56.024
		c19.674,7.369,39.31,13.189,53.948,16.771c0.449,20.577-0.863,58.623-12.622,103.014c-10.328,38.99-26.603,74.794-48.372,106.418
		c-24.714,35.902-56.71,66.594-95.24,91.385c-38.215-24.587-70.004-54.981-94.63-90.501
		c-21.759-31.384-38.088-66.923-48.535-105.628c-12.096-44.815-13.461-83.764-13.032-104.697
		c14.634-3.583,34.253-9.398,53.91-16.761C335.888,229.87,375.605,211.691,408.768,184.861 M408.769,154.056
		c-62.638,61.226-172.292,84.531-178.238,84.531c0,0-26.546,225.641,178.238,346.995
		c204.784-121.353,178.238-346.995,178.238-346.995C581.06,238.587,471.406,215.282,408.769,154.056L408.769,154.056z"/>
</g>
<g>
	<polygon style="fill:#ED3041;" points="416.603,625.639 407.726,607.652 398.848,625.639 378.998,628.524 393.362,642.525 
		389.971,662.295 407.726,652.961 425.48,662.295 422.089,642.525 436.453,628.524 	"/>
	<path style="fill:#16467B;" d="M289.696,587.192c3.682-21.055-6.342-52.423-16.356-67.088c-9,14.811-13.204,42.231,3.182,58.522
		c-11.66-5.686-26.585-7.779-54.38-4.943c-4.673,0.462-8.786,1.101-11.671,1.952C231.565,595.513,267.952,605.464,289.696,587.192z"
		/>
	<path style="fill:#16467B;" d="M254.533,560.93c8.009-18.34,5.78-48.525-2.219-67.007c-14.331,16.443-19.31,40.193-7.606,57.192
		c-17.029-13.4-41.372-18.109-61.714-16.343C199.017,557.788,231.538,572.52,254.533,560.93z"/>
	<path style="fill:#16467B;" d="M226.345,527.971c11.278-15.629,14.783-45.493,9.791-64.044
		c-15.451,13.057-24.219,35.438-16.627,53.542c-15.074-17.608-42.084-25.186-55.486-26.438
		C175.36,515.66,203.218,534.159,226.345,527.971z"/>
	<path style="fill:#16467B;" d="M205.657,491.071c13.486-12.847,19.934-40.108,17.597-58.765
		c-15.359,9.689-26.873,26.807-23.722,44.362c-9.492-15.902-25.877-25.489-44.57-30.463
		C161.175,469.502,183.049,493.024,205.657,491.071z"/>
	<path style="fill:#16467B;" d="M191.412,449.513c14.711-9.553,27.67-35.586,27.777-52.802
		c-21.236,9.408-31.019,27.739-30.109,42.93c-5.011-13.055-18.083-29.884-40.026-40.023
		C151.517,426.563,172.909,447.842,191.412,449.513z"/>
	<path style="fill:#16467B;" d="M184.697,407.733c11.973-5.07,31.757-24.972,32.557-49.378
		c-22.838,10.741-31.7,28.284-33.033,40.618c-2.073-11.507-10.061-29.481-33.74-40.618
		C151.102,377.31,166.253,403.082,184.697,407.733z"/>
	<path style="fill:#16467B;" d="M183.867,365.389c12.439-4.038,31.295-23.743,31.676-46.846
		c-10.794,5.253-22.441,14.01-26.62,24.031c-2.309,5.544-4.29,11.087-5.041,15.885c-1.147-10.032-7.23-28.013-31.689-39.916
		C152.573,341.646,171.428,361.352,183.867,365.389z"/>
	<path style="fill:#16467B;" d="M183.867,323.024c10.515-3.254,29.965-21.333,29.965-44.293
		c-22.922,11.529-28.855,28.98-29.965,38.331c-1.109-9.351-7.043-26.802-29.964-38.331
		C153.903,301.691,173.352,319.769,183.867,323.024z"/>
	<path style="fill:#16467B;" d="M329.002,556.555c-1.103,8.75-0.007,46.084,26.961,64.47c-30.792-10.826-61.513,10.415-67.907,16.49
		c23.184,7.885,58.75,10.066,80.507-10.118C371.927,597.912,349.092,570.556,329.002,556.555z"/>
	<path style="fill:#16467B;" d="M297.607,540.234c-8.536,22.434-3.251,47.375,18.361,60.909c-28.97-9.013-67.598,7.411-70.6,9.041
		c30.025,18.149,63.939,13.914,82.484-3.375C330.853,581.065,309.19,552.442,297.607,540.234z"/>
	<path style="fill:#16467B;" d="M185.046,288.234c16.013-10.998,12.222-33.938-0.453-49.338
		C172.11,254.795,168.936,277.492,185.046,288.234z"/>
	<path style="fill:#16467B;" d="M541.015,578.626c16.385-16.291,12.182-43.71,3.182-58.522
		c-10.014,14.664-20.039,46.033-16.356,67.088c21.744,18.272,58.131,8.321,79.226-11.557c-2.885-0.851-6.998-1.49-11.671-1.952
		C567.6,570.847,552.676,572.94,541.015,578.626z"/>
	<path style="fill:#16467B;" d="M572.829,551.116c11.704-16.999,6.725-40.75-7.606-57.192c-8,18.482-10.229,48.667-2.22,67.007
		c22.995,11.59,55.516-3.143,71.539-26.157C614.201,533.007,589.858,537.716,572.829,551.116z"/>
	<path style="fill:#16467B;" d="M598.028,517.469c7.591-18.104-1.176-40.485-16.627-53.542c-4.993,18.551-1.487,48.415,9.791,64.044
		c23.127,6.188,50.985-12.312,62.322-36.94C640.112,492.283,613.102,499.861,598.028,517.469z"/>
	<path style="fill:#16467B;" d="M618.005,476.668c3.15-17.555-8.363-34.672-23.723-44.362c-2.337,18.657,4.111,45.918,17.597,58.765
		c22.608,1.953,44.482-21.568,50.695-44.866C643.882,451.179,627.497,460.766,618.005,476.668z"/>
	<path style="fill:#16467B;" d="M626.124,449.513c18.503-1.671,39.896-22.949,42.358-49.895
		c-21.943,10.139-35.015,26.967-40.026,40.023c0.91-15.191-8.874-33.522-30.109-42.93
		C598.454,413.926,611.414,439.959,626.124,449.513z"/>
	<path style="fill:#16467B;" d="M632.84,407.733c18.444-4.651,33.595-30.423,34.216-49.378
		c-23.679,11.136-31.667,29.111-33.74,40.618c-1.333-12.334-10.195-29.877-33.033-40.618
		C601.082,382.761,620.866,402.663,632.84,407.733z"/>
	<path style="fill:#16467B;" d="M633.669,365.389c12.44-4.038,31.295-23.743,31.676-46.846
		c-24.459,11.903-30.543,29.884-31.689,39.916c-0.751-4.798-2.732-10.341-5.041-15.885c-4.18-10.021-15.826-18.778-26.621-24.031
		C602.374,341.646,621.23,361.352,633.669,365.389z"/>
	<path style="fill:#16467B;" d="M633.669,323.024c10.515-3.254,29.965-21.333,29.965-44.293
		c-22.922,11.529-28.855,28.98-29.965,38.331c-1.109-9.351-7.043-26.802-29.964-38.331
		C603.705,301.691,623.154,319.769,633.669,323.024z"/>
	<path style="fill:#16467B;" d="M461.574,621.026c26.968-18.387,28.065-55.72,26.961-64.47
		c-20.09,14.001-42.925,41.357-39.56,70.843c21.756,20.184,57.323,18.003,80.507,10.118
		C523.087,631.441,492.366,610.199,461.574,621.026z"/>
	<path style="fill:#16467B;" d="M501.569,601.143c21.612-13.534,26.897-38.475,18.36-60.909
		c-11.583,12.208-33.245,40.831-30.245,66.575c18.546,17.289,52.459,21.525,82.485,3.375
		C569.167,608.554,530.538,592.13,501.569,601.143z"/>
	<path style="fill:#16467B;" d="M632.491,288.234c16.109-10.742,12.936-33.439,0.453-49.338
		C620.268,254.295,616.478,277.235,632.491,288.234z"/>
</g>
<path style="fill:#16467B;" d="M410.246,399.085c-33.556,0-60.856,27.3-60.856,60.855c0,33.556,27.3,60.856,60.856,60.856
	c33.556,0,60.855-27.3,60.855-60.856C471.102,426.384,443.802,399.085,410.246,399.085z M407.485,413.448l12.561-6.88
	c9.356,0.834,14.583,3.162,14.583,3.162s4.521,2.642,10.283,9.11l1.925,14.104l-12.567,4.236l0.012-0.07l-21.98-11.567
	l-4.851-12.097L407.485,413.448z M430.851,439.04l-2.263,16.171l-1.539-14.767l-12.298-10.024L430.851,439.04z M406.229,413.387
	l5.117,12.751l-18.03,13.507l0.071,0.113l-16.327-0.439l-7.061-10.277l18.084-16.561L406.229,413.387z M377.62,440.444l16.46,0.443
	l12.294,19.953l-9.633,19.375l-22.882,0.342l-8.311-19.5L377.62,440.444z M362.366,433.933l6.42-1.488l5.467,7.313l-5.944-3.656
	L362.366,433.933z M366.583,422.98c5.284-6.236,11.878-11.324,19.359-14.84l0.399,0.963l0.514,1.24l0.528,1.272l-19.2,17.584
	l0.154,0.167l-7.214,1.531C362.704,428.109,364.534,425.463,366.583,422.98z M358.148,480.4c-2.767-6.665-4.151-13.557-4.32-20.358
	l10.878,1.871l7.954,18.664l-0.195,0.002l-0.65,17.145l-1.196,1.25C365.421,493.832,361.13,487.584,358.148,480.4z M371.423,499.737
	l0.98-1.021l24.342,12.852l0.587,2.184C387.702,511.493,378.721,506.675,371.423,499.737z M430.753,511.059
	c-10.553,4.383-21.725,5.19-32.196,2.981l-0.74-2.761l16.199-10.573l16.121-2.227l10.559,7.187
	C437.634,507.764,434.314,509.582,430.753,511.059z M429.933,497.388l-16.264,2.247l-16.116-18.555l9.588-19.289l22.747-1.556
	l11.938,16.638L429.933,497.388z M431.072,459.985l3.028-21.576l13.277-4.476l12.286,16.357l-3.192,22.051l-13.556,4.149
	L431.072,459.985z M451.604,476.49l4.375-0.799l3.683,8.266L451.604,476.49z M457.475,473.152l3.283-22.681
	c1.924-0.455,1.546-0.366,2.99-0.708c1.989,11.054,0.591,22.207-3.648,32.117L457.475,473.152z"/>
<path style="fill:#ED3041;" d="M520.753,262.18v68.646h-37.649l-18.1,80.27l27.875,42.73c0,0,56.296-85.393,54.082-183.535
	L520.753,262.18z"/>
<path style="fill:#ED3041;" d="M295.264,262.18v68.646h37.649l18.1,80.27l-27.875,42.73c0,0-56.296-85.393-54.081-183.535
	L295.264,262.18z"/>
<polygon style="fill:#FFFFFF;" points="313.141,339.79 316.318,349.568 326.599,349.568 318.281,355.611 321.458,365.389 
	313.141,359.346 304.823,365.389 308,355.611 299.682,349.568 309.964,349.568 "/>
<polygon style="fill:#FFFFFF;" points="501.017,339.79 504.194,349.568 514.476,349.568 506.158,355.611 509.335,365.389 
	501.017,359.346 492.7,365.389 495.877,355.611 487.559,349.568 497.84,349.568 "/>
</svg>
